<?xml version="1.0" encoding="UTF-8" standalone="no"?>
<!-- Generator: Adobe Illustrator 15.1.0, SVG Export Plug-In . SVG Version: 6.00 Build 0)  -->

<svg
   version="1.1"
   id="Layer_1"
   x="0px"
   y="0px"
   width="213.9608"
   height="61.238277"
   viewBox="0.07 0.05 213.9608 61.238277"
   enable-background="new 0.07 0.05 1470 131"
   xml:space="preserve"
   sodipodi:docname="logo.svg"
   inkscape:version="1.1.2 (b8e25be8, 2022-02-05)"
   xmlns:inkscape="http://www.inkscape.org/namespaces/inkscape"
   xmlns:sodipodi="http://sodipodi.sourceforge.net/DTD/sodipodi-0.dtd"
   xmlns="http://www.w3.org/2000/svg"
   xmlns:svg="http://www.w3.org/2000/svg"><defs
   id="defs134" /><sodipodi:namedview
   id="namedview132"
   pagecolor="#ffffff"
   bordercolor="#666666"
   borderopacity="1.0"
   inkscape:pageshadow="2"
   inkscape:pageopacity="0.0"
   inkscape:pagecheckerboard="0"
   showgrid="false"
   inkscape:zoom="0.75578231"
   inkscape:cx="-61.525653"
   inkscape:cy="7.2772277"
   inkscape:window-width="1680"
   inkscape:window-height="941"
   inkscape:window-x="1280"
   inkscape:window-y="25"
   inkscape:window-maximized="1"
   inkscape:current-layer="Layer_1_1_" />
<g
   id="Layer_1_1_"
   transform="translate(-1219.754,-69.277344)">
	<path
   id="path69"
   d="m 1348.6387,69.277344 c -21.519,0 -32.9571,17.303894 -32.9571,34.337886 0,10.10055 4.0186,20.47658 12.4883,26.90039 h 41.5 c 1.2727,-0.90185 2.5164,-1.85232 3.6446,-2.95898 3.063,-3.049 4.5908,-5.91684 6.2128,-8.96484 l -17.1054,-8.24805 c -0.723,2.151 -3.5149,10.40039 -12.8809,10.40039 -9.904,0 -13.4199,-8.87806 -13.4199,-18.28906 0,-2.516004 -6e-4,-9.689767 4.7734,-14.259768 1.35,-1.345999 4.1417,-3.408203 8.5547,-3.408203 8.465,0 11.5255,6.723188 13.1485,10.492188 l 16.8378,-8.339844 c -1.347,-2.508 -2.6115,-4.6585 -5.3125,-7.4375 -6.666,-6.816 -15.8473,-10.224609 -25.4843,-10.224609 z m 38.9394,2.24414 v 58.994136 h 46.1367 v -12.24609 h -26.0586 V 71.521484 Z m -137.2011,0.08984 v 37.656256 c 0.181,6.636 0.2662,13.71745 6.5722,19.81445 0.2733,0.26088 0.1848,0.2067 0.051,0.10547 0.2328,0.43136 0.4118,0.89036 0.6328,1.32812 h 41.5039 c 0.6123,-0.4672 1.2254,-0.93487 1.7598,-1.43554 7.474,-7.082 7.4746,-16.49681 7.4746,-23.75781 V 71.611328 h -20.2617 v 39.541012 c 0,2.69 -0.09,5.46894 -2.4297,7.71094 -1.17,1.073 -3.2465,2.23828 -6.3965,2.23828 -2.339,0 -4.7736,-0.62608 -6.3926,-2.33008 -2.2508,-2.15 -2.3418,-4.93014 -2.3418,-7.61914 V 71.611328 Z M 1257,129.1875 c -0.018,-0.0343 -0.032,-0.0712 -0.051,-0.10547 -0.5239,-0.36995 -0.1618,-0.0552 0.051,0.10547 z"
   transform="translate(0.07,0.05)"
   style="fill:#ffffff" />
</g>
<g
   id="Layer_3"
   display="none"
   transform="translate(-1219.754,-69.277344)">
	<g
   display="inline"
   id="g76">
		<path
   fill="none"
   d="M 955.457,45.229 V 43.4 h -0.533 c 0,-4.901 -4.389,-5.852 -4.389,-5.852 l -0.008,-0.887 -0.465,-0.781 -0.004,-1.682 -0.643,-0.81 c -0.008,-0.008 0.025,-0.443 0.025,-0.443 0,0.005 0,-0.147 0,-0.272 h -0.418 c 0,0.125 0,0.277 0,0.272 0,0 0.031,0.437 0.025,0.443 l -0.643,0.81 -0.002,1.682 -0.463,0.781 -0.014,0.887 c 0,0 -4.381,0.949 -4.381,5.852 h -0.537 v 1.828 l 6.223,-1.223 z"
   id="path72" />
		<path
   fill="none"
   d="m 961.384,60.213 v -1.842 h -2.145 V 49.65 h 1.48 l 0.309,-1.569 0.047,-0.384 -11.77,-2.524 -11.775,2.516 0.045,0.394 0.307,1.569 h 1.26 v 8.722 h -2.365 l 0.008,1.842 h -0.975 l 0.01,1.873 h 26.812 v -1.873 z m -16.533,-1.842 h -2.83 V 49.65 h 2.83 z m 5.705,0 h -2.83 V 49.65 h 2.83 z m 5.803,0 h -2.926 V 49.65 h 2.926 z"
   id="path74" />
	</g>
</g>
<g
   id="Layer_2"
   display="none"
   transform="translate(-1219.754,-69.277344)">
	<g
   display="inline"
   id="g105">
		
			<line
   fill="none"
   stroke="#000000"
   stroke-width="0.0747"
   stroke-linecap="round"
   stroke-linejoin="round"
   x1="944.41901"
   y1="43.182999"
   x2="944.41901"
   y2="43.057999"
   id="line79" />
		<polyline
   fill="#ffffff"
   stroke="#000000"
   stroke-width="0.0747"
   stroke-linecap="round"
   stroke-linejoin="round"
   points="    962.275,48.179 949.759,48.179 937.246,48.179   "
   id="polyline81" />
		<path
   fill="#ffffff"
   stroke="#000000"
   stroke-width="0.0747"
   stroke-linecap="round"
   stroke-linejoin="round"
   d="M 955.496,44.188"
   id="path83" />
		<path
   fill="#ffffff"
   d="m 955.464,43.87 v -0.21 c 0,-0.039 0.01,-0.066 0.029,-0.08 0.021,-0.01 0.031,-0.025 0.031,-0.045 0,-0.021 -0.018,-0.03 -0.045,-0.03 -0.031,0 -0.051,0.003 -0.057,0.01 -0.01,0.006 -0.062,0.01 -0.158,0.01 v -0.209 c 0,-0.04 0.008,-0.065 0.025,-0.079 0.012,-0.01 0.018,-0.024 0.018,-0.045 0,-0.016 -0.012,-0.024 -0.033,-0.024 -0.023,0 -0.037,0.002 -0.045,0.005 -0.008,0.007 -0.051,0.01 -0.131,0.01 v -0.125 c 0,-0.04 0.01,-0.064 0.025,-0.075 0.018,-0.013 0.025,-0.028 0.025,-0.045 0,-0.02 -0.014,-0.029 -0.035,-0.029 -0.023,0 -0.039,0.003 -0.049,0.01 -0.008,0.003 -0.049,0.005 -0.125,0.005 0,-0.612 -0.033,-1.066 -0.102,-1.365 -0.066,-0.299 -0.148,-0.59 -0.248,-0.872 -0.1,-0.278 -0.207,-0.519 -0.324,-0.717 -0.115,-0.203 -0.268,-0.424 -0.447,-0.663 -0.188,-0.24 -0.355,-0.434 -0.504,-0.583 -0.148,-0.148 -0.312,-0.301 -0.494,-0.453 -0.182,-0.148 -0.309,-0.245 -0.377,-0.284 -0.07,-0.04 -0.082,-0.1 -0.035,-0.179 0.047,-0.08 0.016,-0.12 -0.09,-0.12 -0.107,0 -0.189,-0.018 -0.248,-0.054 -0.062,-0.034 -0.15,-0.085 -0.271,-0.155 -0.121,-0.069 -0.178,-0.143 -0.178,-0.219 0,-0.076 -0.025,-0.105 -0.076,-0.085 -0.053,0.023 -0.133,0.019 -0.244,-0.015 -0.109,-0.03 -0.203,-0.085 -0.285,-0.165 -0.076,-0.08 -0.127,-0.175 -0.148,-0.284 -0.02,-0.109 -0.012,-0.194 0.021,-0.254 0.035,-0.061 0.07,-0.089 0.104,-0.089 0.035,0 0.049,-0.021 0.039,-0.061 -0.01,-0.04 -0.08,-0.098 -0.209,-0.174 -0.129,-0.073 -0.199,-0.124 -0.209,-0.149 -0.01,-0.023 -0.016,-0.062 -0.016,-0.114 0,-0.051 -0.02,-0.084 -0.061,-0.104 v -0.265 -1.086 c 0.033,-0.061 0.043,-0.101 0.025,-0.119 -0.018,-0.021 -0.018,-0.044 0,-0.075 0.018,-0.03 0.041,-0.044 0.074,-0.044 0.033,0 0.035,-0.016 0.006,-0.045 -0.029,-0.03 -0.047,-0.07 -0.047,-0.119 0,-0.05 0.021,-0.095 0.061,-0.135 0.041,-0.04 0.061,-0.089 0.061,-0.149 0,-0.06 -0.016,-0.09 -0.045,-0.09 -0.029,0 -0.059,0.008 -0.09,0.025 -0.029,0.017 -0.059,0.017 -0.09,0 -0.029,-0.018 -0.066,-0.061 -0.109,-0.13 -0.039,-0.069 -0.059,-0.126 -0.059,-0.17 0,-0.039 -0.016,-0.06 -0.045,-0.06 -0.029,0 -0.061,0 -0.09,0 -0.029,0 -0.07,-0.05 -0.119,-0.149 -0.051,-0.099 -0.076,-0.164 -0.076,-0.193 0,-0.03 -0.033,-0.065 -0.104,-0.105 -0.066,-0.04 -0.137,-0.269 -0.137,-0.269 0,0 -0.062,0.229 -0.133,0.269 -0.071,0.04 -0.105,0.075 -0.105,0.105 0,0.029 -0.023,0.094 -0.074,0.193 -0.049,0.101 -0.09,0.149 -0.119,0.149 -0.029,0 -0.061,0 -0.09,0 -0.029,0 -0.045,0.021 -0.045,0.06 0,0.044 -0.02,0.101 -0.059,0.17 -0.041,0.069 -0.076,0.112 -0.105,0.13 -0.033,0.017 -0.064,0.017 -0.096,0 -0.029,-0.018 -0.059,-0.025 -0.09,-0.025 -0.029,0 -0.043,0.03 -0.043,0.09 0,0.061 0.02,0.11 0.061,0.149 0.039,0.039 0.059,0.084 0.059,0.135 0,0.049 -0.014,0.089 -0.043,0.119 -0.031,0.03 -0.029,0.045 0.004,0.045 0.033,0 0.057,0.014 0.074,0.044 0.017,0.03 0.018,0.055 0,0.075 -0.018,0.02 -0.008,0.06 0.025,0.119 v 1.351 c -0.039,0.021 -0.061,0.055 -0.061,0.104 0,0.053 -0.004,0.091 -0.014,0.114 -0.012,0.025 -0.08,0.076 -0.209,0.149 -0.129,0.076 -0.199,0.134 -0.209,0.174 -0.01,0.04 0.004,0.061 0.041,0.061 0.031,0 0.066,0.029 0.104,0.089 0.033,0.06 0.039,0.145 0.02,0.254 -0.019,0.109 -0.07,0.205 -0.148,0.284 -0.08,0.078 -0.174,0.134 -0.285,0.165 -0.109,0.032 -0.188,0.039 -0.238,0.015 -0.051,-0.021 -0.074,0.009 -0.074,0.085 0,0.076 -0.062,0.149 -0.186,0.219 -0.121,0.07 -0.209,0.121 -0.27,0.155 -0.061,0.036 -0.143,0.054 -0.248,0.054 -0.107,0 -0.137,0.04 -0.09,0.12 0.045,0.08 0.033,0.14 -0.035,0.179 -0.07,0.04 -0.195,0.136 -0.373,0.284 -0.184,0.152 -0.35,0.305 -0.5,0.453 -0.15,0.149 -0.316,0.343 -0.498,0.583 -0.188,0.239 -0.338,0.46 -0.453,0.663 -0.117,0.199 -0.225,0.438 -0.324,0.717 -0.1,0.282 -0.184,0.573 -0.25,0.872 -0.062,0.299 -0.094,1.365 -0.094,1.365 -0.08,0 -0.125,-0.002 -0.129,-0.005 -0.008,-0.007 -0.023,-0.01 -0.047,-0.01 -0.024,0 -0.033,0.01 -0.033,0.029 0,0.017 0.006,0.032 0.02,0.045 0.016,0.011 0.023,0.035 0.023,0.075 v 0.125 c -0.08,0 -0.123,-0.003 -0.129,-0.01 -0.006,-0.003 -0.021,-0.005 -0.043,-0.005 -0.023,0 -0.037,0.009 -0.037,0.024 0,0.021 0.008,0.035 0.02,0.045 0.018,0.014 0.025,0.04 0.025,0.079 v 0.209 c -0.096,0 -0.146,-0.003 -0.154,-0.01 -0.01,-0.007 -0.027,-0.01 -0.059,-0.01 -0.027,0 -0.041,0.01 -0.041,0.03 0,0.02 0.008,0.035 0.025,0.045 0.021,0.014 0.029,0.041 0.029,0.08 v 0.209 h -0.328 c 0,0.02 0.01,0.029 0.029,0.029 0.021,0 0.045,0.01 0.076,0.025 0.029,0.017 0.049,0.032 0.059,0.045 0.008,0.014 0.01,0.03 0.01,0.05 0,0.021 -0.002,0.03 -0.01,0.03 -0.01,0 -0.023,0.005 -0.045,0.016 -0.02,0.01 -0.027,0.021 -0.025,0.029 0.004,0.01 0.014,0.015 0.031,0.015 0.016,0 0.041,0 0.074,0 0.029,0 0.061,0.021 0.09,0.061 0.029,0.04 0.045,0.07 0.045,0.089 0,0.02 -0.004,0.03 -0.016,0.03 -0.01,0 -0.02,0.005 -0.029,0.015 -0.009,0.01 -0.016,0.021 -0.016,0.03 0,0.009 0.031,0.024 0.09,0.045 v 0.842 c -0.037,0.021 -0.066,0.035 -0.09,0.044 -0.02,0.01 -0.029,0.021 -0.029,0.03 0,0.009 0.01,0.015 0.029,0.015 0.021,0 0.031,0.016 0.031,0.045 0,0.03 -0.016,0.064 -0.045,0.104 -0.031,0.04 -0.078,0.06 -0.141,0.06 v 1.21 l 11.828,-0.093 v -1.117 c -0.061,0 -0.105,-0.02 -0.135,-0.06 -0.031,-0.04 -0.045,-0.075 -0.045,-0.104 0,-0.028 0.01,-0.045 0.029,-0.045 0.021,0 0.031,-0.005 0.031,-0.015 0,-0.01 -0.014,-0.021 -0.037,-0.03 -0.021,-0.01 -0.051,-0.025 -0.084,-0.044 v -0.842 c 0.01,-0.003 0.02,-0.006 0.027,-0.009 0.041,-0.017 0.062,-0.027 0.062,-0.036 0,-0.01 -0.006,-0.021 -0.018,-0.03 -0.008,-0.01 -0.018,-0.015 -0.027,-0.015 -0.012,0 -0.016,-0.011 -0.016,-0.03 0,-0.021 0.016,-0.05 0.043,-0.089 0.031,-0.04 0.061,-0.061 0.092,-0.061 0.029,0 0.055,0 0.068,0 0.018,0 0.027,-0.005 0.031,-0.015 0.002,-0.01 -0.006,-0.02 -0.025,-0.029 -0.019,-0.009 -0.031,-0.016 -0.041,-0.016 -0.01,0 -0.016,-0.01 -0.016,-0.03 0,-0.02 0.006,-0.036 0.016,-0.05 0.01,-0.013 0.025,-0.028 0.057,-0.045 0.029,-0.016 0.055,-0.025 0.074,-0.025 0.019,0 0.029,-0.01 0.029,-0.029 z"
   id="path85" />
		<path
   fill="#ffffff"
   d="m 953.103,59.19 c -0.066,-0.01 -0.109,-0.024 -0.129,-0.045 -0.016,-0.02 -0.023,-0.042 -0.023,-0.064 0,-0.023 -0.027,-0.043 -0.078,-0.061 -0.051,-0.016 -0.094,-0.055 -0.127,-0.113 V 57.645 54.76 l -0.104,-3.388 c 0.104,-0.04 0.137,-0.07 0.104,-0.09 -0.035,-0.021 -0.062,-0.049 -0.078,-0.086 -0.018,-0.035 -0.008,-0.07 0.027,-0.104 0.031,-0.036 0.066,-0.064 0.102,-0.084 0.036,-0.02 0.033,-0.035 0,-0.045 -0.035,-0.01 -0.078,-0.025 -0.129,-0.045 -0.051,-0.021 -0.018,-0.064 0.104,-0.134 0.121,-0.07 0.205,-0.105 0.258,-0.105 0.051,0 0.057,-0.015 0.018,-0.044 -0.041,-0.03 -0.041,-0.065 0,-0.104 0.039,-0.04 0.053,-0.075 0.041,-0.104 -0.012,-0.029 -0.035,-0.064 -0.076,-0.104 -0.041,-0.04 -0.025,-0.061 0.043,-0.061 0.068,0 0.137,-0.03 0.205,-0.089 H 950.7 c 0.068,0.06 0.137,0.089 0.207,0.089 0.066,0 0.08,0.021 0.043,0.061 -0.041,0.039 -0.066,0.074 -0.078,0.104 -0.014,0.03 0.002,0.065 0.043,0.104 0.041,0.039 0.041,0.074 0,0.104 -0.041,0.03 -0.035,0.044 0.018,0.044 0.051,0 0.135,0.035 0.256,0.105 0.121,0.069 0.154,0.113 0.105,0.134 -0.053,0.02 -0.096,0.035 -0.129,0.045 -0.035,0.01 -0.035,0.025 0,0.045 0.033,0.02 0.066,0.048 0.102,0.084 0.035,0.034 0.043,0.068 0.027,0.104 -0.02,0.037 -0.045,0.065 -0.078,0.086 -0.035,0.02 0,0.05 0.104,0.09 l -0.104,3.388 v 2.885 1.262 c -0.035,0.06 -0.078,0.098 -0.129,0.113 -0.051,0.018 -0.076,0.037 -0.076,0.061 0,0.022 -0.008,0.045 -0.025,0.064 -0.018,0.021 -0.062,0.035 -0.129,0.045 -0.068,0.011 -0.104,0.055 -0.104,0.136 h 2.459 c -0.005,-0.081 -0.039,-0.126 -0.109,-0.136 z"
   id="path87" />
		<path
   fill="#ffffff"
   d="m 957.507,59.19 c -0.066,-0.01 -0.111,-0.024 -0.129,-0.045 -0.018,-0.02 -0.025,-0.042 -0.025,-0.064 0,-0.023 -0.023,-0.043 -0.076,-0.061 -0.053,-0.016 -0.096,-0.055 -0.129,-0.113 V 57.645 54.76 l -0.104,-3.388 c 0.104,-0.04 0.137,-0.07 0.104,-0.09 -0.033,-0.021 -0.061,-0.049 -0.076,-0.086 -0.018,-0.035 -0.01,-0.07 0.025,-0.104 0.033,-0.036 0.068,-0.064 0.104,-0.084 0.031,-0.02 0.031,-0.035 0,-0.045 -0.035,-0.01 -0.078,-0.025 -0.129,-0.045 -0.053,-0.021 -0.018,-0.064 0.102,-0.134 0.121,-0.07 0.207,-0.105 0.258,-0.105 0.053,0 0.059,-0.015 0.018,-0.044 -0.039,-0.03 -0.039,-0.065 0,-0.104 0.041,-0.04 0.055,-0.075 0.045,-0.104 -0.014,-0.03 -0.039,-0.064 -0.08,-0.104 -0.039,-0.04 -0.023,-0.061 0.045,-0.061 0.068,0 0.137,-0.03 0.205,-0.089 h -2.564 c 0.07,0.06 0.139,0.089 0.207,0.089 0.074,0 0.09,0.021 0.053,0.061 -0.041,0.039 -0.066,0.074 -0.078,0.104 -0.018,0.03 -0.006,0.065 0.033,0.104 0.039,0.039 0.039,0.074 0,0.104 -0.039,0.03 -0.033,0.044 0.018,0.044 0.059,0 0.146,0.035 0.268,0.105 0.119,0.069 0.152,0.113 0.102,0.134 -0.051,0.02 -0.094,0.035 -0.127,0.045 -0.035,0.01 -0.035,0.025 0,0.045 0.033,0.02 0.066,0.048 0.102,0.084 0.035,0.034 0.043,0.068 0.025,0.104 -0.018,0.037 -0.043,0.065 -0.076,0.086 -0.033,0.02 0,0.05 0.104,0.09 l -0.104,3.388 v 2.885 1.262 c -0.033,0.06 -0.076,0.098 -0.129,0.113 -0.051,0.018 -0.076,0.037 -0.076,0.061 0,0.022 -0.012,0.045 -0.035,0.064 -0.018,0.021 -0.059,0.035 -0.129,0.045 -0.068,0.011 -0.104,0.055 -0.104,0.136 h 2.461 c -0.005,-0.081 -0.04,-0.126 -0.109,-0.136 z"
   id="path89" />
		<path
   fill="#ffffff"
   d="m 948.691,59.19 c -0.068,-0.01 -0.111,-0.024 -0.129,-0.045 -0.016,-0.02 -0.023,-0.042 -0.023,-0.064 0,-0.023 -0.027,-0.043 -0.078,-0.061 -0.051,-0.016 -0.094,-0.055 -0.129,-0.113 V 57.645 54.76 l -0.104,-3.388 c 0.104,-0.04 0.139,-0.07 0.104,-0.09 -0.033,-0.021 -0.061,-0.049 -0.076,-0.086 -0.018,-0.035 -0.01,-0.07 0.025,-0.104 0.033,-0.036 0.068,-0.064 0.104,-0.084 0.033,-0.02 0.033,-0.035 0,-0.045 -0.035,-0.01 -0.078,-0.025 -0.129,-0.045 -0.051,-0.021 -0.018,-0.064 0.102,-0.134 0.121,-0.07 0.207,-0.105 0.258,-0.105 0.053,0 0.057,-0.015 0.018,-0.044 -0.041,-0.03 -0.041,-0.065 0,-0.104 0.039,-0.04 0.055,-0.075 0.043,-0.104 -0.012,-0.03 -0.037,-0.064 -0.078,-0.104 -0.039,-0.04 -0.025,-0.061 0.043,-0.061 0.068,0 0.139,-0.03 0.207,-0.089 h -2.562 c 0.068,0.06 0.137,0.089 0.207,0.089 0.068,0 0.082,0.021 0.041,0.061 -0.041,0.039 -0.064,0.074 -0.076,0.104 -0.012,0.03 0.002,0.065 0.043,0.104 0.039,0.039 0.039,0.074 0,0.104 -0.041,0.03 -0.035,0.044 0.018,0.044 0.051,0 0.137,0.035 0.258,0.105 0.119,0.069 0.152,0.113 0.102,0.134 -0.051,0.02 -0.094,0.035 -0.127,0.045 -0.035,0.01 -0.035,0.025 0,0.045 0.033,0.02 0.068,0.048 0.102,0.084 0.035,0.034 0.045,0.068 0.027,0.104 -0.018,0.037 -0.043,0.065 -0.078,0.086 -0.033,0.02 0,0.05 0.104,0.09 L 946.8,54.76 v 2.885 1.262 c -0.033,0.06 -0.076,0.098 -0.127,0.113 -0.051,0.018 -0.078,0.037 -0.078,0.061 0,0.022 -0.008,0.045 -0.023,0.064 -0.018,0.021 -0.062,0.035 -0.129,0.045 -0.068,0.011 -0.104,0.055 -0.104,0.136 h 2.459 c -0.004,-0.081 -0.039,-0.126 -0.107,-0.136 z"
   id="path91" />
		<path
   fill="#ffffff"
   d="m 944.289,59.19 c -0.068,-0.01 -0.113,-0.024 -0.129,-0.045 -0.018,-0.02 -0.025,-0.042 -0.025,-0.064 0,-0.023 -0.025,-0.043 -0.078,-0.061 -0.051,-0.016 -0.094,-0.055 -0.127,-0.113 V 57.645 54.76 l -0.104,-3.388 c 0.104,-0.04 0.137,-0.07 0.104,-0.09 -0.035,-0.021 -0.061,-0.049 -0.078,-0.086 -0.016,-0.035 -0.008,-0.07 0.025,-0.104 0.035,-0.036 0.07,-0.064 0.104,-0.084 0.034,-0.02 0.033,-0.035 0,-0.045 -0.033,-0.01 -0.076,-0.025 -0.129,-0.045 -0.051,-0.021 -0.016,-0.064 0.104,-0.134 0.121,-0.07 0.207,-0.105 0.258,-0.105 0.051,0 0.057,-0.015 0.018,-0.044 -0.041,-0.03 -0.041,-0.065 0,-0.104 0.039,-0.04 0.053,-0.075 0.043,-0.104 -0.014,-0.03 -0.037,-0.064 -0.078,-0.104 -0.039,-0.04 -0.025,-0.061 0.043,-0.061 0.068,0 0.137,-0.03 0.205,-0.089 h -2.562 c 0.07,0.06 0.139,0.089 0.207,0.089 0.068,0 0.082,0.021 0.043,0.061 -0.041,0.039 -0.066,0.074 -0.078,0.104 -0.012,0.03 0.002,0.065 0.043,0.104 0.041,0.039 0.041,0.074 0,0.104 -0.041,0.03 -0.033,0.044 0.018,0.044 0.051,0 0.137,0.035 0.256,0.105 0.121,0.069 0.154,0.113 0.104,0.134 -0.051,0.02 -0.094,0.035 -0.129,0.045 -0.033,0.01 -0.033,0.025 0,0.045 0.035,0.02 0.07,0.048 0.104,0.084 0.035,0.034 0.043,0.068 0.025,0.104 -0.018,0.037 -0.041,0.065 -0.076,0.086 -0.035,0.02 0,0.05 0.102,0.09 L 942.4,54.76 v 2.885 1.262 c -0.035,0.06 -0.078,0.098 -0.129,0.113 -0.053,0.018 -0.076,0.037 -0.076,0.061 0,0.022 -0.008,0.045 -0.027,0.064 -0.016,0.021 -0.059,0.035 -0.127,0.045 -0.068,0.011 -0.104,0.055 -0.104,0.136 h 2.459 C 944.39,59.245 944.357,59.2 944.289,59.19 Z"
   id="path93" />
		<path
   fill="#ffffff"
   d="m 939.884,59.19 c -0.068,-0.01 -0.111,-0.024 -0.129,-0.045 -0.018,-0.02 -0.025,-0.042 -0.025,-0.064 0,-0.023 -0.027,-0.043 -0.086,-0.061 -0.051,-0.016 -0.094,-0.055 -0.129,-0.113 V 57.645 54.76 l -0.102,-3.388 c 0.102,-0.04 0.137,-0.07 0.102,-0.09 -0.033,-0.021 -0.059,-0.049 -0.076,-0.086 -0.018,-0.035 -0.01,-0.07 0.025,-0.104 0.033,-0.036 0.068,-0.064 0.104,-0.084 0.033,-0.02 0.033,-0.035 0,-0.045 -0.035,-0.01 -0.078,-0.025 -0.129,-0.045 -0.053,-0.021 -0.018,-0.064 0.104,-0.134 0.125,-0.07 0.213,-0.105 0.266,-0.105 0.053,0 0.057,-0.015 0.018,-0.044 -0.041,-0.03 -0.041,-0.065 0,-0.104 0.039,-0.04 0.055,-0.075 0.043,-0.104 -0.018,-0.03 -0.045,-0.064 -0.086,-0.104 -0.035,-0.04 -0.018,-0.061 0.051,-0.061 0.07,0 0.137,-0.03 0.207,-0.089 h -1.215 -0.883 -0.455 -0.01 c 0.068,0.06 0.137,0.089 0.205,0.089 0.068,0 0.084,0.021 0.043,0.061 -0.041,0.039 -0.064,0.074 -0.078,0.104 -0.01,0.03 0.002,0.065 0.043,0.104 0.041,0.039 0.041,0.074 0,0.104 -0.041,0.03 -0.033,0.044 0.018,0.044 0.053,0 0.137,0.035 0.258,0.105 0.119,0.069 0.154,0.113 0.104,0.134 -0.053,0.02 -0.096,0.035 -0.131,0.045 -0.033,0.01 -0.033,0.025 0,0.045 0.035,0.02 0.07,0.048 0.104,0.084 0.035,0.034 0.043,0.068 0.027,0.104 -0.018,0.037 -0.043,0.065 -0.078,0.086 -0.035,0.02 0,0.05 0.104,0.09 l -0.104,3.388 v 2.885 1.262 c -0.035,0.06 -0.076,0.098 -0.127,0.113 -0.053,0.018 -0.078,0.037 -0.078,0.061 0,0.022 -0.008,0.045 -0.025,0.064 -0.018,0.021 -0.061,0.035 -0.129,0.045 -0.068,0.011 -0.102,0.055 -0.102,0.136 h 2.459 c -0.004,-0.081 -0.039,-0.126 -0.108,-0.136 z"
   id="path95" />
		<path
   fill="#ffffff"
   d="m 961.912,59.19 c -0.068,-0.01 -0.111,-0.024 -0.129,-0.045 -0.018,-0.02 -0.025,-0.042 -0.025,-0.064 0,-0.023 -0.025,-0.043 -0.078,-0.061 -0.051,-0.016 -0.094,-0.055 -0.129,-0.113 V 57.645 54.76 l -0.102,-3.388 c 0.102,-0.04 0.137,-0.07 0.102,-0.09 -0.033,-0.021 -0.059,-0.049 -0.076,-0.086 -0.018,-0.035 -0.008,-0.07 0.025,-0.104 0.035,-0.036 0.068,-0.064 0.104,-0.084 0.036,-0.02 0.035,-0.035 0,-0.045 -0.033,-0.01 -0.076,-0.025 -0.129,-0.045 -0.051,-0.021 -0.018,-0.064 0.105,-0.134 0.119,-0.07 0.205,-0.105 0.256,-0.105 0.051,0 0.057,-0.015 0.018,-0.044 -0.039,-0.03 -0.039,-0.065 0,-0.104 0.039,-0.04 0.055,-0.075 0.043,-0.104 -0.012,-0.03 -0.037,-0.064 -0.076,-0.104 -0.041,-0.04 -0.027,-0.061 0.041,-0.061 0.068,0 0.139,-0.03 0.207,-0.089 h -2.555 c 0.068,0.06 0.139,0.089 0.207,0.089 0.066,0 0.082,0.021 0.041,0.061 -0.039,0.039 -0.064,0.074 -0.076,0.104 -0.012,0.03 0.004,0.065 0.043,0.104 0.039,0.039 0.039,0.074 0,0.104 -0.039,0.03 -0.035,0.044 0.018,0.044 0.051,0 0.139,0.035 0.256,0.105 0.121,0.069 0.154,0.113 0.105,0.134 -0.053,0.02 -0.096,0.035 -0.129,0.045 -0.033,0.01 -0.033,0.025 0,0.045 0.033,0.02 0.068,0.048 0.104,0.084 0.033,0.034 0.043,0.068 0.025,0.104 -0.018,0.037 -0.043,0.065 -0.076,0.086 -0.035,0.02 0,0.05 0.102,0.09 l -0.102,3.388 v 2.885 1.262 c -0.035,0.06 -0.08,0.098 -0.131,0.113 -0.051,0.018 -0.076,0.037 -0.076,0.061 0,0.022 -0.008,0.045 -0.025,0.064 -0.018,0.021 -0.061,0.035 -0.129,0.045 -0.068,0.011 -0.104,0.055 -0.104,0.136 h 2.451 C 962.015,59.245 961.98,59.2 961.912,59.19 Z"
   id="path97" />
		<path
   fill="#ffffff"
   d="m 962.664,60.197 v -0.304 l -0.061,-0.24 h -0.299 v -0.179 h -0.299 v -0.05 -0.1 0 h -1.809 -1.432 -1.809 -1.436 -1.803 -1.438 -1.809 -1.43 -1.809 -1.43 -1.809 -1.43 -1.809 -1.432 -1.809 v 0 0.113 0.036 h -0.299 v 0.179 h -0.299 l -0.061,0.24 v 0.304 h -0.447 c 0,0.061 0.014,0.099 0.045,0.114 0.027,0.018 0.045,0.046 0.045,0.09 0,0.043 0.014,0.065 0.045,0.065 0.029,0 0.055,0.01 0.074,0.029 0.02,0.021 0.029,0.06 0.029,0.12 v 3.089 h 13.113 13.113 v -3.089 c 0,-0.061 0.01,-0.101 0.029,-0.12 0.02,-0.021 0.047,-0.029 0.08,-0.029 0.029,0 0.045,-0.022 0.045,-0.065 0,-0.043 0.014,-0.072 0.045,-0.09 0.027,-0.017 0.045,-0.054 0.045,-0.114 h -0.449 z"
   id="path99" />
		<path
   fill="#ffffff"
   d="m 939.361,50.172 h 1.354 1.885 1.355 1.883 0.682 0.68 1.885 1.354 1.885 1.361 1.877 1.361 1.883 1.355 1.463 0.08 c 0,-0.14 0.006,-0.219 0.02,-0.239 0.012,-0.02 0.021,-0.047 0.029,-0.08 0.01,-0.029 0.016,-0.068 0.016,-0.119 0,-0.05 0.016,-0.085 0.045,-0.104 0.031,-0.021 0.051,-0.036 0.061,-0.045 0.01,-0.01 0.016,-0.025 0.016,-0.044 0,-0.021 -0.016,-0.03 -0.045,-0.03 -0.031,0 -0.055,-0.005 -0.074,-0.015 -0.021,-0.011 -0.029,-0.104 -0.029,-0.284 0,-0.179 0.006,-0.284 0.014,-0.313 0.01,-0.029 0.031,-0.06 0.061,-0.09 0.031,-0.03 0.064,-0.045 0.105,-0.045 0.039,0 0.059,-0.026 0.059,-0.08 0,-0.05 0.006,-0.1 0.018,-0.148 0.01,-0.051 0.033,-0.078 0.072,-0.084 0.041,-0.008 0.074,-0.002 0.105,0.015 0.031,0.016 0.055,0.015 0.074,-0.005 0.021,-0.021 0.02,-0.045 -0.004,-0.075 -0.024,-0.03 -0.023,-0.063 0,-0.104 0.023,-0.041 0.033,-0.066 0.033,-0.08 0,-0.015 0,-0.043 0,-0.09 0,-0.047 0.012,-0.074 0.029,-0.085 0.021,-0.01 0.057,-0.015 0.105,-0.015 0.048,0 0.072,-0.032 0.068,-0.095 l -12.719,-2.576 -12.719,2.576 c -0.004,0.062 0.02,0.095 0.068,0.095 0.051,0 0.084,0.004 0.105,0.015 0.02,0.011 0.029,0.038 0.029,0.085 0,0.047 0,0.076 0,0.09 0,0.013 0.012,0.04 0.035,0.08 0.023,0.04 0.023,0.074 0,0.104 -0.023,0.03 -0.023,0.055 -0.004,0.075 0.02,0.02 0.043,0.021 0.074,0.005 0.029,-0.017 0.064,-0.021 0.105,-0.015 0.039,0.006 0.062,0.033 0.074,0.084 0.01,0.05 0.016,0.1 0.016,0.148 0,0.053 0.02,0.08 0.064,0.08 0.039,0 0.074,0.015 0.104,0.045 0.031,0.03 0.051,0.061 0.061,0.09 0.01,0.029 0.016,0.135 0.016,0.313 0,0.18 -0.012,0.273 -0.031,0.284 -0.02,0.01 -0.045,0.015 -0.074,0.015 -0.031,0 -0.045,0.009 -0.045,0.03 0,0.02 0.004,0.034 0.014,0.044 0.012,0.009 0.031,0.024 0.061,0.045 0.031,0.02 0.045,0.055 0.045,0.104 0,0.05 0.006,0.09 0.016,0.119 0.01,0.033 0.021,0.061 0.029,0.08 0.01,0.021 0.016,0.1 0.016,0.239 h 0.648 z"
   id="path101" />
		<path
   fill="#ffffff"
   stroke="#000000"
   stroke-width="0.084"
   stroke-linecap="round"
   stroke-linejoin="round"
   d="M 937.787,50.172"
   id="path103" />
	</g>
</g>
<g
   id="Layer_4"
   transform="translate(-1219.754,-69.277344)">
	<g
   id="g128">
		<path
   fill="#ffffff"
   d="m 1242.126,85.883 c -0.039,-0.008 -10.875,-2.336 -10.875,-2.336 0,0 -10.85,2.332 -10.871,2.336 -0.059,0.012 -0.039,0.062 -0.039,0.062 l 0.15,0.557 0.031,-10e-4 -0.01,10e-4 c 0,0 0.168,-0.021 0.268,0.134 l 0.162,0.894 c 0,0 0,0.062 0.066,0.062 0.066,0 0.395,0 0.395,0 h 19.688 c 0,0 0.342,0 0.396,0 0.054,0 0.061,-0.046 0.061,-0.046 l 0.162,-0.895 c 0.094,-0.175 0.275,-0.15 0.275,-0.15 V 86.5 l 0.027,0.001 0.15,-0.557 c 0,10e-4 0.025,-0.049 -0.036,-0.061 z"
   id="path108" />
		<path
   fill="#ffffff"
   d="m 1240.99,87.879 c 0.012,0 0.021,-0.009 0.021,-0.024 v -0.276 c 0,-0.015 -0.012,-0.002 -0.021,-0.002 h -1.652 c -0.012,0 -0.025,-0.013 -0.025,0.002 v 0.276 c 0,0.016 0.014,0.024 0.025,0.024 l 0.07,10e-4 c 0.031,0 0.035,0.033 0.035,0.064 0,0.042 0.018,0.257 0.168,0.387 0.02,0.019 0.016,0.07 -0.031,0.07 0,0 -0.047,0 -0.051,0 -0.037,0 -0.039,0.025 -0.027,0.045 0.014,0.025 0.018,0.099 0.018,0.133 0,0.035 0,0.096 0,0.121 0,0.021 0,0.04 0.023,0.04 0,0 0.021,0 0.023,0 0,0 0.018,-0.003 0.018,0.018 0,0.016 0,0.024 0,0.024 v 6.075 c -0.02,0.02 -0.082,0.084 -0.088,0.088 0,0.006 -0.012,0.014 -0.012,0.022 v 0.103 c 0,0.008 0,0.019 -0.01,0.022 0,0.005 -0.014,0.007 -0.021,0.007 h -0.076 c -0.016,0 -0.025,0.012 -0.025,0.025 0,0 0,0.169 0,0.176 h 1.619 c 0,-0.006 0,-0.176 0,-0.176 0,-0.014 -0.012,-0.025 -0.023,-0.025 h -0.076 c -0.01,0 -0.018,-0.002 -0.023,-0.007 0,-0.004 -0.01,-0.015 -0.01,-0.022 v -0.1 c 0,-0.008 0,-0.014 -0.01,-0.021 -0.01,-0.009 -0.062,-0.062 -0.088,-0.09 v -6.075 c 0,0 0,-0.009 0,-0.024 0,-0.02 0.016,-0.018 0.016,-0.018 0,0 0.021,0 0.023,0 0.021,0 0.025,-0.019 0.025,-0.04 0,-0.024 0,-0.086 0,-0.121 0,-0.034 0.01,-0.107 0.018,-0.132 0.014,-0.021 0.01,-0.046 -0.029,-0.046 0,0 -0.047,0 -0.049,0 -0.047,0 -0.053,-0.053 -0.033,-0.07 0.152,-0.124 0.168,-0.34 0.168,-0.381 0,-0.037 0,-0.07 0.039,-0.07 z"
   id="path110" />
		<path
   fill="#ffffff"
   d="m 1237.427,87.879 c 0.012,0 0.023,-0.009 0.023,-0.024 v -0.276 c 0,-0.015 -0.014,-0.002 -0.023,-0.002 h -1.654 c -0.014,0 -0.023,-0.013 -0.023,0.002 v 0.276 c 0,0.016 0.01,0.024 0.023,0.024 l 0.072,10e-4 c 0.031,0 0.033,0.033 0.033,0.064 0,0.042 0.02,0.257 0.168,0.387 0.02,0.019 0.014,0.07 -0.029,0.07 0,0 -0.049,0 -0.051,0 -0.039,0 -0.043,0.025 -0.031,0.045 0.016,0.025 0.018,0.099 0.018,0.133 0,0.035 0,0.096 0,0.121 0,0.021 0,0.04 0.025,0.04 h 0.023 c 0,0 0.018,-0.003 0.018,0.018 0,0.016 0,0.024 0,0.024 v 6.075 c -0.02,0.02 -0.086,0.084 -0.09,0.088 -0.01,0.006 -0.01,0.014 -0.01,0.022 v 0.103 c 0,0.008 0,0.019 -0.01,0.022 0,0.005 -0.012,0.007 -0.02,0.007 h -0.078 c -0.012,0 -0.021,0.012 -0.021,0.025 0,0 0,0.169 0,0.176 h 1.615 c 0,-0.006 0,-0.176 0,-0.176 0,-0.014 -0.012,-0.025 -0.023,-0.025 h -0.076 c -0.01,0 -0.02,-0.002 -0.023,-0.007 -0.01,-0.004 -0.01,-0.015 -0.01,-0.022 v -0.1 c 0,-0.008 0,-0.014 -0.01,-0.021 -0.01,-0.009 -0.061,-0.062 -0.088,-0.09 v -6.075 c 0,0 0,-0.009 0,-0.024 0,-0.02 0.018,-0.018 0.018,-0.018 0,0 0.021,0 0.021,0 0.021,0 0.023,-0.019 0.023,-0.04 0,-0.024 0,-0.086 0,-0.121 0,-0.034 0.01,-0.107 0.021,-0.132 0.01,-0.021 0.01,-0.046 -0.031,-0.046 0,0 -0.045,0 -0.049,0 -0.047,0 -0.053,-0.053 -0.031,-0.07 0.152,-0.124 0.168,-0.34 0.168,-0.381 0,-0.037 0,-0.07 0.037,-0.07 z"
   id="path112" />
		<path
   fill="#ffffff"
   d="m 1233.863,87.879 c 0.014,0 0.02,-0.009 0.02,-0.024 v -0.276 c 0,-0.015 -0.01,-0.002 -0.02,-0.002 h -1.654 c -0.014,0 -0.023,-0.013 -0.023,0.002 v 0.276 c 0,0.016 0.01,0.024 0.023,0.024 l 0.072,10e-4 c 0.029,0 0.031,0.033 0.031,0.064 0,0.042 0.021,0.257 0.172,0.387 0.02,0.019 0.012,0.07 -0.031,0.07 0,0 -0.049,0 -0.051,0 -0.039,0 -0.041,0.025 -0.029,0.045 0.014,0.025 0.018,0.099 0.018,0.133 0,0.035 0,0.096 0,0.121 0,0.021 0,0.04 0.021,0.04 0,0 0.023,0 0.023,0 0,0 0.021,-0.003 0.021,0.018 0,0.016 0,0.024 0,0.024 v 6.075 c -0.02,0.02 -0.084,0.084 -0.09,0.088 -0.01,0.006 -0.012,0.014 -0.012,0.022 v 0.103 c 0,0.008 0,0.019 -0.01,0.022 -0.01,0.005 -0.016,0.007 -0.021,0.007 h -0.076 c -0.012,0 -0.023,0.012 -0.023,0.025 0,0 0,0.169 0,0.176 h 1.615 c 0,-0.006 0,-0.176 0,-0.176 0,-0.014 -0.012,-0.025 -0.023,-0.025 h -0.076 c -0.01,0 -0.02,-0.002 -0.023,-0.007 0,-0.004 -0.01,-0.015 -0.01,-0.022 v -0.1 c 0,-0.008 0,-0.014 -0.01,-0.021 -0.01,-0.009 -0.061,-0.062 -0.09,-0.09 v -6.075 c 0,0 0,-0.009 0,-0.024 0,-0.02 0.018,-0.018 0.018,-0.018 0,0 0.021,0 0.021,0 0.023,0 0.025,-0.019 0.025,-0.04 0,-0.024 0,-0.086 0,-0.121 0,-0.034 0.01,-0.107 0.021,-0.132 0.01,-0.021 0.01,-0.046 -0.029,-0.046 0,0 -0.047,0 -0.051,0 -0.047,0 -0.055,-0.053 -0.029,-0.07 0.15,-0.124 0.164,-0.34 0.164,-0.381 0,-0.037 0,-0.07 0.039,-0.07 z"
   id="path114" />
		<path
   fill="#ffffff"
   d="m 1230.298,87.879 c 0.014,0 0.023,-0.009 0.023,-0.024 v -0.276 c 0,-0.015 -0.012,-0.002 -0.023,-0.002 h -1.654 c -0.014,0 -0.021,-0.013 -0.021,0.002 v 0.276 c 0,0.016 0.01,0.024 0.021,0.024 l 0.07,10e-4 c 0.033,0 0.035,0.033 0.035,0.064 0,0.042 0.02,0.257 0.17,0.387 0.02,0.019 0.012,0.07 -0.031,0.07 0,0 -0.049,0 -0.051,0 -0.039,0 -0.041,0.025 -0.029,0.045 0.014,0.025 0.018,0.099 0.018,0.133 0,0.035 0,0.096 0,0.121 0,0.021 0,0.04 0.025,0.04 0,0 0.021,0 0.023,0 0,0 0.018,-0.003 0.018,0.018 0,0.016 0,0.024 0,0.024 v 6.075 c -0.018,0.02 -0.084,0.084 -0.09,0.088 0,0.006 -0.01,0.014 -0.01,0.022 v 0.103 c 0,0.008 0,0.019 -0.01,0.022 -0.01,0.005 -0.016,0.007 -0.021,0.007 h -0.076 c -0.014,0 -0.023,0.012 -0.023,0.025 0,0 0,0.169 0,0.176 h 1.615 c 0,-0.006 0,-0.176 0,-0.176 0,-0.014 -0.01,-0.025 -0.023,-0.025 h -0.076 c -0.01,0 -0.018,-0.002 -0.023,-0.007 0,-0.004 -0.01,-0.015 -0.01,-0.022 v -0.1 c 0,-0.008 0,-0.014 -0.01,-0.021 -0.01,-0.009 -0.061,-0.062 -0.088,-0.09 v -6.075 c 0,0 0,-0.009 0,-0.024 0,-0.02 0.018,-0.018 0.018,-0.018 0,0 0.021,0 0.023,0 0.02,0 0.023,-0.019 0.023,-0.04 0,-0.024 0,-0.086 0,-0.121 0,-0.034 0.01,-0.107 0.02,-0.132 0.012,-0.021 0.01,-0.046 -0.029,-0.046 0,0 -0.047,0 -0.049,0 -0.049,0 -0.055,-0.053 -0.033,-0.07 0.152,-0.124 0.168,-0.34 0.168,-0.381 0,-0.037 0,-0.07 0.037,-0.07 z"
   id="path116" />
		<path
   fill="#ffffff"
   d="m 1226.734,87.879 c 0.014,0 0.021,-0.009 0.021,-0.024 v -0.276 c 0,-0.015 -0.01,-0.002 -0.021,-0.002 h -1.652 c -0.014,0 -0.023,-0.013 -0.023,0.002 v 0.276 c 0,0.016 0.01,0.024 0.023,0.024 l 0.068,10e-4 c 0.033,0 0.035,0.033 0.035,0.064 0,0.042 0.021,0.257 0.172,0.387 0.02,0.019 0.012,0.07 -0.033,0.07 0,0 -0.049,0 -0.051,0 -0.039,0 -0.041,0.025 -0.029,0.045 0.014,0.025 0.018,0.099 0.018,0.133 0,0.035 0,0.096 0,0.121 0,0.021 0,0.04 0.025,0.04 0,0 0.02,0 0.021,0 0,0 0.02,-0.003 0.02,0.018 0,0.016 0,0.024 0,0.024 v 6.075 c -0.02,0.02 -0.084,0.084 -0.088,0.088 -0.01,0.006 -0.012,0.014 -0.012,0.022 v 0.103 c 0,0.008 0,0.019 -0.01,0.022 0,0.005 -0.014,0.007 -0.021,0.007 h -0.074 c -0.016,0 -0.025,0.012 -0.025,0.025 0,0 0,0.169 0,0.176 h 1.615 c 0,-0.006 0,-0.176 0,-0.176 0,-0.014 -0.01,-0.025 -0.021,-0.025 h -0.078 c -0.01,0 -0.016,-0.002 -0.021,-0.007 -0.01,-0.004 -0.01,-0.015 -0.01,-0.022 v -0.1 c 0,-0.008 0,-0.014 -0.01,-0.021 -0.01,-0.009 -0.062,-0.062 -0.09,-0.09 v -6.075 c 0,0 0,-0.009 0,-0.024 0,-0.02 0.018,-0.018 0.018,-0.018 0,0 0.021,0 0.021,0 0.023,0 0.025,-0.019 0.025,-0.04 0,-0.024 0,-0.086 0,-0.121 0,-0.034 0.01,-0.107 0.02,-0.132 0.014,-0.021 0.01,-0.046 -0.029,-0.046 0,0 -0.047,0 -0.051,0 -0.047,0 -0.053,-0.053 -0.031,-0.07 0.152,-0.124 0.168,-0.34 0.168,-0.381 0,-0.037 0,-0.07 0.037,-0.07 z"
   id="path118" />
		<path
   fill="#ffffff"
   d="m 1223.169,87.879 c 0.014,0 0.025,-0.009 0.025,-0.024 v -0.276 c 0,-0.015 -0.014,-0.002 -0.025,-0.002 h -1.652 c -0.014,0 -0.023,-0.013 -0.023,0.002 v 0.276 c 0,0.016 0.01,0.024 0.023,0.024 l 0.07,10e-4 c 0.033,0 0.035,0.033 0.035,0.064 0,0.042 0.02,0.257 0.17,0.387 0.02,0.019 0.012,0.07 -0.031,0.07 0,0 -0.049,0 -0.053,0 -0.037,0 -0.039,0.025 -0.027,0.045 0.014,0.025 0.016,0.099 0.016,0.133 0,0.035 0,0.096 0,0.121 0,0.021 0,0.04 0.025,0.04 h 0.023 c 0,0 0.018,-0.003 0.018,0.018 0,0.016 0,0.024 0,0.024 v 6.075 c -0.018,0.02 -0.082,0.084 -0.088,0.088 -0.01,0.006 -0.01,0.014 -0.01,0.022 v 0.103 c 0,0.008 0,0.019 -0.01,0.022 -0.01,0.005 -0.018,0.007 -0.023,0.007 h -0.076 c -0.014,0 -0.025,0.012 -0.025,0.025 0,0 0,0.169 0,0.176 h 1.617 c 0,-0.006 0,-0.176 0,-0.176 0,-0.014 -0.01,-0.025 -0.023,-0.025 h -0.078 c -0.01,0 -0.018,-0.002 -0.02,-0.007 -0.01,-0.004 -0.01,-0.015 -0.01,-0.022 v -0.1 c 0,-0.008 0,-0.014 -0.01,-0.021 -0.01,-0.009 -0.062,-0.062 -0.09,-0.09 v -6.075 c 0,0 0,-0.009 0,-0.024 0,-0.02 0.016,-0.018 0.016,-0.018 0,0 0.021,0 0.021,0 0.023,0 0.027,-0.019 0.027,-0.04 0,-0.024 0,-0.086 0,-0.121 0,-0.034 0,-0.107 0.02,-0.132 0.01,-0.021 0.01,-0.046 -0.029,-0.046 0,0 -0.047,0 -0.051,0 -0.049,0 -0.053,-0.053 -0.031,-0.07 0.15,-0.124 0.166,-0.34 0.166,-0.381 0,-0.037 0,-0.07 0.039,-0.07 z"
   id="path120" />
		<g
   id="g124">
			<path
   fill="#ffffff"
   d="m 1236.312,81.444 c 0,0 -0.135,0 -0.17,0 -0.045,0 -0.043,-0.036 -0.043,-0.036 0,0 0,-0.146 0,-0.184 0,-0.047 -0.047,-0.047 -0.047,-0.047 0,0 -0.125,0 -0.166,0 -0.047,0 -0.045,-0.042 -0.045,-0.042 v -0.169 c 0,0 0,-0.037 -0.043,-0.037 -0.016,0 -0.072,0 -0.1,0 -0.035,0 -0.072,-0.029 -0.074,-0.078 -0.01,-0.23 0.074,-1.86 -0.787,-3.042 -0.678,-1.014 -1.611,-1.527 -2.127,-1.768 -0.01,-0.221 -0.322,-0.304 -0.459,-0.352 -0.072,-0.023 -0.135,-0.053 -0.135,-0.116 0,-0.004 0,-0.072 0,-0.075 0,-0.068 0.061,-0.097 0.156,-0.094 0.027,0.002 0.051,-0.023 0.051,-0.043 v -0.197 c 0,-0.028 -0.025,-0.061 -0.066,-0.061 -0.068,0 -0.146,0 -0.186,0 -0.045,0 -0.066,-0.041 -0.066,-0.064 0,-0.04 0,-0.022 0,-0.1 0,-0.058 -0.045,-0.091 -0.08,-0.107 v -1.217 c 0,-0.041 0.031,-0.036 0.059,-0.036 0,0 0.01,0 0.014,-10e-4 v 0 c 0.016,0 0.029,-0.015 0.029,-0.03 v -0.116 c 0,-0.017 -0.014,-0.029 -0.029,-0.029 h -0.055 c -0.02,-0.009 -0.033,-0.033 -0.033,-0.089 0,-0.056 0.018,-0.083 0.041,-0.087 H 1232 c 0.016,0 0.029,-0.013 0.029,-0.028 V 73.08 c 0,-0.016 -0.014,-0.028 -0.029,-0.028 h -0.061 c -0.027,-0.004 -0.049,-0.016 -0.074,-0.037 -0.207,-0.164 -0.416,-0.399 -0.416,-0.436 0,-0.02 0,-0.021 0,-0.044 0,-0.025 -0.025,-0.074 -0.082,-0.074 -0.057,0 -0.047,-0.058 -0.02,-0.058 0.021,0 0.023,-0.005 0.023,-0.032 0,-0.018 0,-0.047 0,-0.079 0,-0.035 -0.105,-0.183 -0.105,-0.183 h -0.01 c 0,0 -0.105,0.146 -0.105,0.183 0,0.032 0,0.062 0,0.079 0,0.026 0.01,0.032 0.023,0.032 0.029,0 0.037,0.058 -0.016,0.058 -0.057,0 -0.082,0.049 -0.082,0.074 0,0.022 0,0.024 0,0.044 0,0.035 -0.209,0.271 -0.416,0.436 -0.027,0.021 -0.047,0.033 -0.074,0.037 h -0.061 c -0.018,0 -0.029,0.013 -0.029,0.028 v 0.118 c 0,0.016 0.014,0.028 0.029,0.028 h 0.049 c 0.02,0.005 0.039,0.031 0.039,0.087 0,0.056 -0.016,0.08 -0.033,0.089 h -0.057 c -0.016,0 -0.027,0.013 -0.027,0.029 v 0.116 c 0,0.016 0.014,0.03 0.027,0.03 h 0.01 c 0.01,0.001 0.01,0.001 0.014,0.001 0.027,0 0.061,-0.005 0.061,0.036 v 1.217 c -0.035,0.017 -0.082,0.05 -0.082,0.107 0,0.077 0,0.06 0,0.1 0,0.024 -0.021,0.064 -0.066,0.064 -0.039,0 -0.119,0 -0.186,0 -0.041,0 -0.068,0.032 -0.068,0.061 v 0.197 c 0,0.02 0.023,0.045 0.051,0.043 0.094,-0.003 0.158,0.024 0.158,0.094 0,0.003 0,0.071 0,0.075 0,0.063 -0.064,0.093 -0.135,0.116 -0.137,0.047 -0.449,0.131 -0.457,0.352 -0.518,0.239 -1.453,0.754 -2.127,1.768 -0.863,1.18 -0.781,2.812 -0.789,3.042 0,0.048 -0.037,0.078 -0.074,0.078 -0.025,0 -0.084,0 -0.1,0 -0.043,0 -0.043,0.037 -0.043,0.037 v 0.169 c 0,0 0,0.042 -0.043,0.042 -0.043,0 -0.17,0 -0.17,0 0,0 -0.043,0 -0.043,0.047 0,0.037 0,0.184 0,0.184 0,0 0,0.036 -0.047,0.036 -0.033,0 -0.17,0 -0.17,0 0,0 -0.047,0 -0.047,0.049 0,0.027 0,0.137 0,0.196 0,0.022 0.014,0.026 0.029,0.028 0.051,0.007 0.152,0.053 0.152,0.166 0,0.192 0.117,0.211 0.164,0.211 v 0.709 c 0,0.166 -0.129,0.23 -0.201,0.248 -0.016,0.002 -0.033,0.02 -0.033,0.04 0,0.019 0,0.729 0,0.729 l 4.982,-1.1 h 0.01 l 4.984,1.1 c 0,0 0,-0.712 0,-0.729 0,-0.021 -0.02,-0.037 -0.037,-0.04 -0.072,-0.018 -0.199,-0.083 -0.199,-0.248 v -0.709 c 0.049,0 0.164,-0.019 0.164,-0.211 0,-0.112 0.105,-0.159 0.152,-0.166 0.018,-0.002 0.031,-0.006 0.031,-0.028 0,-0.06 0,-0.169 0,-0.196 0,-0.048 -0.047,-0.048 -0.047,-0.048 z"
   id="path122" />
		</g>
		<polygon
   fill="#ffffff"
   points="1221.535,95.282 1221.535,95.917 1220.681,95.917 1220.681,97.373 1219.824,97.373 1219.824,98.845 1242.683,98.846 1242.683,97.375 1241.826,97.375 1241.826,95.918 1240.974,95.918 1240.974,95.282 "
   id="polygon126" />
	</g>
</g>
</svg>
