<?xml version="1.0" encoding="UTF-8" standalone="no"?>
<svg
   xmlns:dc="http://purl.org/dc/elements/1.1/"
   xmlns:cc="http://creativecommons.org/ns#"
   xmlns:rdf="http://www.w3.org/1999/02/22-rdf-syntax-ns#"
   xmlns:svg="http://www.w3.org/2000/svg"
   xmlns="http://www.w3.org/2000/svg"
   xmlns:sodipodi="http://sodipodi.sourceforge.net/DTD/sodipodi-0.dtd"
   xmlns:inkscape="http://www.inkscape.org/namespaces/inkscape"
   width="297.84897mm"
   height="159.91864mm"
   viewBox="0 0 297.84897 159.91864"
   version="1.1"
   id="svg8"
   sodipodi:docname="ols_vectorised_white.svg"
   inkscape:version="1.0.2 (e86c8708, 2021-01-15)">
  <defs
     id="defs2" />
  <sodipodi:namedview
     id="base"
     pagecolor="#ffffff"
     bordercolor="#666666"
     borderopacity="1.0"
     inkscape:pageopacity="0.0"
     inkscape:pageshadow="2"
     inkscape:zoom="0.35"
     inkscape:cx="36.53292"
     inkscape:cy="251.52894"
     inkscape:document-units="mm"
     inkscape:current-layer="layer1"
     inkscape:document-rotation="0"
     showgrid="false"
     inkscape:window-width="1252"
     inkscape:window-height="1035"
     inkscape:window-x="103"
     inkscape:window-y="45"
     inkscape:window-maximized="0" />
  <metadata
     id="metadata5">
    <rdf:RDF>
      <cc:Work
         rdf:about="">
        <dc:format>image/svg+xml</dc:format>
        <dc:type
           rdf:resource="http://purl.org/dc/dcmitype/StillImage" />
      </cc:Work>
    </rdf:RDF>
  </metadata>
  <g
     inkscape:label="Layer 1"
     inkscape:groupmode="layer"
     id="layer1"
     transform="translate(42.549929,-88.419872)">
    <path
       style="fill:#ffffff;stroke-width:0.264583"
       d="M -8.9478451,236.56456 V 224.7906 h 0.926042 0.926041 v 1.45521 c 0,0.80037 0.04015,1.45521 0.08923,1.45521 0.04908,0 0.607383,-0.49291 1.2406844,-1.09535 3.8169587,-3.63099 9.4380027,-2.55833 11.8992577,2.27073 0.867756,1.70257 0.926042,1.97672 0.926042,4.35567 0,2.18105 -0.0966,2.74377 -0.685602,3.99395 -1.286711,2.73108 -3.810349,4.50364 -6.456963,4.53525 -2.393323,0.0286 -4.0612754,-0.74525 -5.9502073,-2.76058 l -0.7954058,-0.84863 -0.0012,5.09323 -0.0012,5.09323 h -1.058341 -1.058333 z m 10.4697581,2.80649 c 3.984138,-1.80956 4.767435,-8.13395 1.402747,-11.32589 -2.782618,-2.63976 -7.1647264,-2.06693 -9.1591711,1.1973 -0.513871,0.84103 -0.594138,1.33953 -0.595313,3.69722 -7.94e-4,1.84185 0.120214,2.95669 0.373714,3.43958 0.4971887,0.9471 2.3487984,2.72207 3.2615474,3.12655 1.1133637,0.49339 3.4824937,0.4257 4.7164757,-0.13476 z m 15.909788,2.32784 c -4.329674,-0.67972 -7.371676,-4.72943 -7.002963,-9.32281 0.456832,-5.69115 5.728989,-9.22071 11.105605,-7.43488 2.896034,0.9619 5.501145,4.59151 5.501145,7.66454 v 1.1807 h -7.128134 c -3.920474,0 -7.180376,0.0893 -7.244223,0.19843 -0.241258,0.4124 0.551646,2.71254 1.251246,3.62977 1.237576,1.62254 2.625905,2.36224 4.64815,2.4765 2.097731,0.11854 3.618082,-0.49181 4.912897,-1.97228 0.723062,-0.82673 0.87887,-0.89319 1.521355,-0.64892 0.393686,0.14968 0.715793,0.41605 0.715793,0.59192 0,0.17588 -0.579562,0.8784 -1.287918,1.56116 -1.810118,1.74472 -4.332581,2.49352 -6.992953,2.07587 z m 7.484536,-10.09527 c -0.0039,-0.89289 -1.151253,-3.14537 -2.014472,-3.95471 -1.751017,-1.64173 -4.507248,-2.00345 -6.872811,-0.90197 -1.705663,0.79422 -2.976078,2.52592 -3.368855,4.5921 l -0.163465,0.8599 h 6.211094 6.211094 l -0.0026,-0.59532 z m 77.226683,10.09015 c -4.205115,-0.62284 -7.130005,-4.06282 -7.173265,-8.4365 -0.009,-0.94589 0.12184,-2.21477 0.29155,-2.81975 0.70921,-2.52821 3.17383,-4.99549 5.658395,-5.66452 3.94317,-1.06178 7.94794,0.7398 9.8121,4.41407 0.33613,0.66251 0.95932,3.49449 0.96845,4.40093 0.001,0.10914 -3.27222,0.19844 -7.27404,0.19844 -8.201155,0 -7.681145,-0.1564 -6.894385,2.07353 0.91458,2.59218 2.772395,4.02425 5.471165,4.21734 2.11738,0.1515 3.78535,-0.50613 4.93359,-1.94517 0.57018,-0.71458 0.8376,-0.85639 1.37675,-0.73003 1.07629,0.25224 1.12007,0.46366 0.32355,1.56248 -1.41321,1.94956 -4.69302,3.14403 -7.49386,2.72918 z m 7.29901,-10.35473 c -0.67849,-3.14342 -3.14312,-5.2139 -6.20645,-5.2139 -2.58183,0 -4.844275,1.56424 -5.677275,3.92523 -0.8113,2.29948 -1.22083,2.14857 5.830595,2.14857 h 6.23873 z m 40.81835,10.35768 c -2.894,-0.44706 -5.46083,-2.57355 -6.53044,-5.41012 -0.75509,-2.00248 -0.67243,-5.13227 0.18636,-7.05617 2.257,-5.05621 9.62591,-6.40452 13.28821,-2.43139 0.58543,0.63511 1.06441,1.25649 1.06441,1.38084 0,0.12436 -0.42525,0.35662 -0.94499,0.51613 -0.90243,0.27696 -0.99043,0.24459 -1.95375,-0.71873 -1.25703,-1.25703 -2.53141,-1.69104 -4.539,-1.54582 -1.94083,0.14039 -3.44241,1.11325 -4.59454,2.97679 -0.72756,1.17679 -0.80001,1.49954 -0.80001,3.56369 0,2.00247 0.0891,2.43042 0.75656,3.63471 0.44813,0.80854 1.25543,1.72327 1.98028,2.24382 1.02909,0.73904 1.50155,0.89451 2.97055,0.97751 1.99315,0.11263 3.335,-0.40781 4.64404,-1.80116 0.63041,-0.67102 0.89733,-0.7818 1.55482,-0.64528 1.21322,0.25191 1.26561,0.45531 0.41851,1.6247 -0.53817,0.74292 -1.30563,1.33022 -2.45295,1.87712 -1.86559,0.88927 -3.18282,1.10151 -5.04806,0.81336 z m 25.73562,0.0133 c -1.82096,-0.2877 -3.03862,-0.89568 -4.46386,-2.22883 -1.63711,-1.53133 -2.4551,-3.36028 -2.62043,-5.85909 -0.33584,-5.07573 3.28478,-9.10306 8.20839,-9.13044 4.32751,-0.0241 7.93118,3.30408 8.32909,7.69229 l 0.14531,1.60245 h -7.31279 c -4.02204,0 -7.31279,0.0974 -7.31279,0.21656 0,0.11911 0.18531,0.84058 0.41181,1.60326 1.15321,3.88329 5.56008,5.72857 8.98678,3.76301 0.73084,-0.41921 1.4951,-1.07294 1.69835,-1.45272 0.20326,-0.37979 0.46075,-0.69053 0.57221,-0.69053 0.53118,0 1.56002,0.55124 1.56002,0.83584 0,0.17588 -0.57957,0.8784 -1.28792,1.56116 -1.78946,1.72481 -4.33794,2.49407 -6.91417,2.08704 z m 7.40575,-10.10644 c -0.004,-0.89289 -1.15125,-3.14537 -2.01447,-3.95471 -1.52607,-1.43082 -3.91361,-1.90601 -6.27797,-1.24949 -1.49044,0.41385 -3.21566,2.2525 -3.726,3.97097 -0.22791,0.76749 -0.41439,1.49288 -0.41439,1.61199 0,0.11911 2.79797,0.21656 6.21771,0.21656 h 6.21771 l -0.003,-0.59532 z m 31.45377,10.09015 c -4.79897,-0.7108 -7.87253,-5.11034 -7.07139,-10.1221 0.47312,-2.95969 2.13702,-5.20176 4.72094,-6.36136 3.62351,-1.62613 8.41652,-0.42696 9.92086,2.48211 0.36645,0.70865 0.3555,0.72763 -0.58756,1.01706 -0.91799,0.28174 -1.00219,0.25252 -1.88164,-0.65302 -1.1769,-1.21182 -2.31473,-1.67983 -4.06629,-1.67255 -3.52294,0.0147 -6.03835,2.73931 -6.06804,6.57284 -0.0309,3.98583 2.58609,6.9151 6.17784,6.9151 1.81884,0 3.23507,-0.61872 4.29237,-1.87526 0.63362,-0.753 0.79269,-0.81553 1.53391,-0.60296 0.45484,0.13045 0.87323,0.37596 0.92977,0.54557 0.15142,0.4542 -1.72444,2.42215 -2.86195,3.00246 -1.27522,0.65057 -3.4912,0.98134 -5.03882,0.75211 z m 17.95486,-0.007 c -2.87589,-0.42234 -5.45867,-2.55824 -6.53045,-5.40051 -1.3218,-3.50538 -0.13909,-8.04507 2.62448,-10.07365 3.60635,-2.64723 8.53726,-2.20876 11.25112,1.00047 1.08304,1.28072 2.00184,3.44269 2.17464,5.11703 l 0.15028,1.45599 h -7.31306 c -8.23822,0 -7.6709,-0.18256 -6.78558,2.18368 0.96253,2.57262 3.22236,4.17156 5.88018,4.16051 1.75395,-0.007 3.26633,-0.68196 4.3851,-1.95617 0.75917,-0.86463 0.95326,-0.95775 1.56871,-0.7526 0.99796,0.33266 0.99483,0.61873 -0.0198,1.80409 -1.62581,1.8994 -4.55782,2.87645 -7.38563,2.46116 z m 7.36137,-10.48035 c -0.2563,-1.43764 -1.44513,-3.23817 -2.73796,-4.14681 -0.89189,-0.62684 -1.47191,-0.81192 -2.81186,-0.89724 -0.93734,-0.0597 -2.12704,0.0374 -2.67497,0.21818 -1.50384,0.49631 -2.93288,1.94443 -3.55213,3.59959 -0.89551,2.39342 -1.34554,2.21847 5.70666,2.21847 h 6.24716 z M -26.666222,241.3 c -4.692548,-1.2611 -7.980254,-5.86194 -8.00067,-11.19621 -0.01243,-3.24698 0.944462,-5.77376 3.090394,-8.16055 4.117724,-4.5799 10.847594,-4.63525 14.978321,-0.12319 3.410479,3.72532 4.231648,8.92448 2.119783,13.42123 -2.306619,4.91143 -7.272056,7.37981 -12.187828,6.05872 z m 6.22153,-2.46406 c 3.155519,-1.80997 4.915336,-5.01262 4.915336,-8.94529 0,-7.78477 -8.331353,-12.30491 -13.676235,-7.41998 -0.924773,0.84519 -1.729552,1.92063 -2.291604,3.06232 -0.812584,1.6506 -0.866276,1.93253 -0.866276,4.54891 0,2.6175 0.05345,2.89782 0.867986,4.55238 1.006509,2.04451 2.937064,3.93601 4.628622,4.53498 0.614887,0.21772 2.010945,0.40415 3.102351,0.41427 1.72412,0.016 2.159522,-0.0821 3.31982,-0.74759 z m 149.751032,2.59358 c -1.57231,-0.22905 -4.73533,-1.5933 -5.92897,-2.55724 -0.65317,-0.52749 -0.62876,-0.6568 0.40436,-2.1422 0.0379,-0.0545 0.46089,0.23215 0.93998,0.63697 2.74758,2.32165 7.80786,3.10949 10.98432,1.71015 2.88641,-1.27156 2.93047,-5.15601 0.075,-6.61276 -0.59251,-0.30228 -2.23429,-0.84671 -3.6484,-1.20984 -5.70351,-1.46463 -7.60816,-2.50562 -8.27362,-4.52196 -0.60739,-1.84043 0.16007,-5.00805 1.50717,-6.22062 2.74611,-2.47186 8.82388,-2.69217 12.32315,-0.44669 0.6957,0.44643 1.2649,0.86472 1.2649,0.92954 0,0.0648 -0.17931,0.4646 -0.39848,0.88842 l -0.39847,0.77057 -1.12288,-0.7448 c -1.46182,-0.96963 -2.54444,-1.32038 -4.69126,-1.5199 -4.28452,-0.39821 -7.02559,1.82637 -6.33324,5.13988 0.36648,1.75394 1.6503,2.48987 6.32975,3.62844 5.41851,1.31839 7.11259,2.41866 7.68886,4.99372 0.24656,1.10177 0.24696,1.71435 0.002,2.73648 -0.90429,3.76949 -4.77434,5.40855 -10.72392,4.54184 z m -98.302102,-8.30454 v -8.33438 h 0.926042 0.926042 v 1.88777 1.88776 l 0.595312,-0.76277 c 1.675204,-2.14642 3.867439,-3.2906 6.341145,-3.30959 2.444395,-0.0187 3.490957,0.5896 4.607158,2.67808 0.438372,0.82023 0.504777,1.68944 0.581128,7.60677 l 0.0862,6.68073 h -1.078389 -1.078388 v -5.72399 c 0,-6.42751 -0.171376,-7.4008 -1.510102,-8.57621 -2.018972,-1.77268 -5.824574,-0.40929 -7.790005,2.79083 -0.431329,0.7023 -0.487612,1.41106 -0.488487,6.15156 l -9.9e-4,5.35781 h -1.058333 -1.058334 z m 28.373753,-3.10886 0.06896,-11.44323 h 1.058333 1.058334 l 0.06918,10.51719 0.06918,10.51719 h 6.611546 6.611548 v 0.92604 0.92604 h -7.808018 -7.808021 z m 18.986665,3.10886 v -8.33438 h 1.058333 1.058333 v 8.33438 8.33437 h -1.058333 -1.058333 z m 8.202083,0.79375 v -7.54063 h -1.190625 c -1.146527,0 -1.190625,-0.0294 -1.190625,-0.79375 0,-0.76435 0.0441,-0.79375 1.190625,-0.79375 h 1.190625 v -1.01031 c 0,-3.50692 2.128926,-6.13344 4.971456,-6.13344 0.90803,0 3.49521,0.69466 3.49521,0.93847 0,0.0522 -0.14027,0.40282 -0.31171,0.7791 -0.22059,0.48414 -0.43329,0.62825 -0.7276,0.49297 -0.22874,-0.10513 -1.02018,-0.23861 -1.75874,-0.29661 -1.15233,-0.0905 -1.46092,-0.006 -2.17507,0.59481 -0.88809,0.74728 -1.37301,2.03162 -1.3754,3.64283 l -10e-4,0.99218 h 2.38125 2.38125 v 0.79375 0.79375 h -2.38125 -2.38125 v 7.54063 7.54062 h -1.05833 -1.058336 z m 75.935411,-0.79375 v -8.33438 h 1.05833 1.05834 v 8.33438 8.33437 h -1.05834 -1.05833 z m 26.9875,0 v -8.33438 h 0.92604 0.92605 v 1.90349 1.90349 l 0.63963,-0.86698 c 1.47803,-2.00336 3.90216,-3.23985 6.37972,-3.25414 1.95974,-0.0113 3.10319,0.51941 4.00625,1.85947 0.92694,1.3755 1.14523,3.15108 1.14523,9.31561 v 5.80781 h -1.05833 -1.05834 l -0.002,-5.62239 c -7.9e-4,-3.26463 -0.12324,-6.06101 -0.29185,-6.66832 -0.15971,-0.57525 -0.68292,-1.43846 -1.16269,-1.91823 -0.73011,-0.73022 -1.06765,-0.87231 -2.07206,-0.87231 -2.15211,0 -4.15534,1.1445 -5.46561,3.12265 l -0.79578,1.20141 v 5.3786 5.37859 h -1.05833 -1.05834 z M 78.364656,219.49894 v -1.5875 h 1.058333 1.058333 v 1.5875 1.5875 h -1.058333 -1.058333 z m 84.137494,0 v -1.5875 h 1.05833 1.05834 v 1.5875 1.5875 h -1.05834 -1.05833 z m -149.489578,-23.65671 -23.680209,-12.24438 -11.552615,-15.41052 -11.552616,-15.41052 -2.459376,3.59544 c -1.352657,1.97749 -2.568235,3.59543 -2.701285,3.59543 -0.281524,0 -3.6164,-2.3433 -3.6164,-2.54112 0,-0.0732 1.303927,-2.04358 2.897615,-4.37858 l 2.897614,-4.24545 -2.759738,-3.66109 c -1.517856,-2.01359 -2.792017,-3.77468 -2.831469,-3.91352 -0.03945,-0.13885 0.751474,-0.85516 1.757613,-1.59181 l 1.829343,-1.33936 2.220049,2.96411 c 1.221027,1.63026 2.317309,3.06194 2.436182,3.18151 0.118873,0.11958 5.423151,-7.38136 11.787286,-16.66875 6.364134,-9.28738 11.886054,-17.20257 12.270933,-17.5893 0.4441539,-0.4463 9.160785,-4.57162 23.861946,-11.293144 21.748959,-9.943854 23.231374,-10.580703 24.296486,-10.437842 0.788686,0.105785 7.517117,3.467368 22.081586,11.032149 11.520996,5.984007 21.204264,11.060567 21.518375,11.281247 0.314113,0.22069 6.072533,7.8986 12.796483,17.06204 6.723945,9.16343 12.652895,17.22633 13.175435,17.91756 l 0.95008,1.25677 12.71178,-0.009 12.71177,-0.009 17.10634,-25.19278 c 9.40849,-13.85603 17.06256,-25.238076 17.00906,-25.293444 -0.0535,-0.05537 -8.53429,3.749904 -18.84617,8.456174 l -18.74889,8.55683 -8.55374,13.31552 c -4.70456,7.32353 -8.62776,13.36126 -8.71824,13.41718 -0.25279,0.15623 -3.86275,-2.20828 -3.79469,-2.48551 0.096,-0.39084 17.293,-27.08747 17.78513,-27.60958 0.24519,-0.26014 10.96457,-5.28885 23.82083,-11.174924 21.80035,-9.981 23.4479,-10.690913 24.45666,-10.538131 0.6877,0.104156 8.87808,4.222243 22.48869,11.307213 l 21.40706,11.143392 13.33808,17.14384 c 13.32527,17.12739 13.33852,17.14325 13.79919,16.53646 0.25363,-0.33406 1.38798,-1.88891 2.52079,-3.45523 l 2.05965,-2.84786 1.36327,0.973 c 2.67856,1.91179 2.72515,1.35992 -0.48618,5.75894 -1.55667,2.1324 -2.77431,4.02175 -2.70589,4.19856 0.0685,0.1768 1.43264,1.9985 3.03154,4.04821 l 2.90711,3.72675 -1.55382,1.24335 c -0.8546,0.68385 -1.71759,1.30621 -1.9178,1.38303 -0.23522,0.0903 -1.27516,-1.04482 -2.94,-3.20902 -2.11029,-2.74327 -2.63586,-3.28441 -2.90698,-2.99311 -0.182,0.19557 -5.77717,7.85652 -12.43369,17.02434 -6.65652,9.16781 -12.47616,17.04661 -12.93253,17.50844 -0.61841,0.62581 -6.22568,3.30477 -22.01325,10.51719 -17.89663,8.17593 -21.36906,9.67749 -22.37959,9.67749 -1.00695,0 -4.87472,-1.65801 -24.45715,-10.48415 -14.3665,-6.47523 -23.53425,-10.74971 -23.97553,-11.17864 -0.39297,-0.38198 -5.57557,-8.55263 -11.51688,-18.157 -5.94131,-9.60438 -11.27526,-18.14517 -11.85321,-18.97955 -2.64288,-3.81545 -21.974868,-30.07152 -22.15135,-30.08524 -0.109141,-0.008 -0.198438,3.2588 -0.198438,7.26062 v 7.27604 h 1.455209 1.455208 v 4.23334 4.23333 h -1.455208 -1.455209 v 18.40416 c 0,11.09509 0.09638,18.34459 0.242687,18.25417 0.133479,-0.0825 4.136649,-5.26676 8.895936,-11.52059 5.26573,-6.91931 8.77003,-11.30225 8.951575,-11.196 0.77394,0.45293 3.33999,2.5142 3.33172,2.67633 -0.007,0.13568 -14.943205,19.87751 -21.748361,28.74559 -0.329779,0.42974 -0.854344,1.00533 -1.165703,1.27908 -0.311357,0.27375 -9.746917,4.71441 -20.967915,9.86812 -18.008822,8.27131 -20.549256,9.36833 -21.658895,9.35277 -1.125299,-0.0158 -3.739608,-1.30126 -24.937294,-12.262 z m 183.666528,-1.6611 c 17.23852,-7.88382 19.45669,-8.96476 19.18229,-9.34781 -0.17065,-0.23821 -5.71243,-7.7759 -12.31506,-16.75042 l -12.00478,-16.3173 h -25.78654 c -16.46326,0 -25.75465,0.0924 -25.69834,0.25548 0.14126,0.40922 36.83355,51.07363 36.98907,51.07421 0.0774,2.7e-4 8.91244,-4.01108 19.63336,-8.91416 z M 77.506308,163.82775 77.573998,142.2406 h -1.059879 -1.059881 v -4.23333 -4.23334 h 1.058333 1.058334 v -9.88948 c 0,-7.5934 -0.07679,-9.9512 -0.330729,-10.15533 -0.36337,-0.2921 -35.76575,-18.707824 -36.5125,-18.993194 -0.43956,-0.167979 -0.463021,1.634278 -0.463021,35.570114 v 35.74706 h 1.190625 1.190625 v 4.23333 4.23334 H 41.45528 40.264655 v 13.99142 13.99142 l 18.58698,-8.54386 18.586979,-8.54386 z M 35.502155,188.2781 V 174.51977 H 34.31153 33.120905 v -4.23334 -4.23333 h 1.190625 1.190625 v -35.85104 c 0,-19.71808 -0.08876,-35.851047 -0.197239,-35.851047 -0.108479,0 -9.454885,4.241633 -20.769792,9.425847 l -20.5725526,9.42585 v 16.10645 16.10644 h 1.190625 1.190625 v 4.23333 4.23334 h -1.190625 -1.190625 l 0.00307,13.4276 0.00307,13.42761 20.5682826,10.64074 c 11.312557,5.85242 20.65758,10.64468 20.76672,10.64948 0.109146,0.005 0.198443,-6.18251 0.198443,-13.7496 z m 133.106815,11.44323 c -0.14399,-0.25466 -7.97902,-11.11911 -17.41118,-24.14323 l -17.14937,-23.68021 -11.17314,-0.069 c -6.14522,-0.038 -11.17313,-0.006 -11.17313,0.0707 0,0.0768 4.33467,7.13253 9.6326,15.67934 l 9.6326,15.53966 18.87625,8.52902 c 10.38194,4.69097 18.91021,8.53078 18.95171,8.53291 0.0415,0.002 -0.0423,-0.20448 -0.18634,-0.45914 z m 61.86782,-33.00677 c 5.82972,-8.00365 10.60111,-14.64138 10.60307,-14.75052 0.003,-0.10914 -9.83369,-0.19844 -21.85698,-0.19844 -17.44994,0 -21.80835,0.0667 -21.60194,0.33073 0.14223,0.1819 4.75894,6.46245 10.25937,13.95677 11.73832,15.99343 11.519,15.70637 11.7879,15.4291 0.11497,-0.11856 4.97883,-6.76399 10.80858,-14.76764 z m -241.276718,-1.98438 v -10.84791 h -1.190626 -1.190625 v -4.23334 -4.23333 h 1.190625 1.190626 v -13.00868 c 0,-7.15478 -0.05099,-12.95769 -0.113314,-12.89537 -0.06232,0.0623 -4.5887,6.6376 -10.05862,14.61172 -6.507059,9.48608 -9.875163,14.61816 -9.742415,14.84481 0.277452,0.47372 19.765404,26.5936 19.848203,26.60273 0.03638,0.004 0.06615,-4.87427 0.06615,-10.84063 z M 190.96075,147.06519 c 0.47463,-0.32894 23.44819,-33.43933 23.30273,-33.5848 -0.48536,-0.48535 -38.17444,-19.846309 -38.33366,-19.692075 -0.10911,0.105689 -8.28686,12.092485 -18.17279,26.637325 l -17.9744,26.44517 11.5582,0.13647 c 19.71262,0.23276 39.32628,0.26142 39.61992,0.0579 z m 50.65182,0.0773 c 0,-0.21007 -23.3111,-30.164 -23.5399,-30.24794 -0.19416,-0.0712 -20.8054,29.27032 -21.10358,30.04242 -0.10156,0.26299 4.45767,0.33073 22.25788,0.33073 12.31209,0 22.3856,-0.0563 22.3856,-0.12521 z"
       id="path850" />
  </g>
</svg>
